<svg width="173" height="38" viewBox="0 0 173 38" fill="none" xmlns="http://www.w3.org/2000/svg">
<path d="M50.7091 10.5038H57.9244C61.9211 10.5038 63.996 12.1455 63.996 15.228V15.3816C64.053 16.2849 63.7844 17.1787 63.2392 17.9004C62.694 18.6222 61.9083 19.1239 61.025 19.3145C62.0828 19.4077 63.0611 19.9152 63.7476 20.7268C64.4341 21.5383 64.7733 22.5883 64.6916 23.6489V23.7552C64.6916 27.1212 62.487 28.8928 58.2545 28.8928H50.7091V10.5038ZM57.2524 18.0507C59.2566 18.0507 60.0465 17.3303 60.0465 15.6886V15.5823C60.0465 14.047 59.1741 13.3502 57.2288 13.3502H54.7647V18.0744L57.2524 18.0507ZM57.606 25.9992C59.6574 25.9992 60.5888 25.0662 60.5888 23.4009V23.2946C60.5888 21.5939 59.6574 20.7317 57.4056 20.7317H54.7647V26.011L57.606 25.9992ZM65.7763 25.1488C65.7763 22.0073 68.6412 20.8262 72.7558 20.8262H74.2648V20.2947C74.2648 18.7003 73.7815 17.8263 72.0837 17.8263C71.8089 17.7937 71.5304 17.8177 71.2652 17.8969C71 17.9761 70.7538 18.1089 70.5417 18.287C70.3297 18.4651 70.1562 18.6849 70.0322 18.9326C69.9081 19.1804 69.8359 19.4511 69.8201 19.7278H66.2832C66.519 16.539 69.0302 15.1217 72.3195 15.1217C75.6088 15.1217 77.9314 16.4563 77.9314 20.1058V28.8691H74.312V27.2511C73.8578 27.8923 73.2453 28.4045 72.5345 28.7377C71.8237 29.071 71.0388 29.2139 70.2563 29.1526C67.8277 29.1526 65.7763 27.9716 65.7763 25.1488ZM74.2648 24.1686V22.9875H72.8265C70.669 22.9875 69.4193 23.4599 69.4193 24.889C69.4193 25.8693 70.0088 26.507 71.3646 26.507C73.0033 26.5543 74.2648 25.6567 74.2648 24.1686ZM79.4994 24.6528H82.9656C83.1189 25.8339 83.7083 26.5543 85.3235 26.5543C86.7619 26.5543 87.4339 26.0228 87.4339 25.0898C87.4339 24.1568 86.6322 23.7788 84.7105 23.5072C81.1736 22.9639 79.7588 21.9364 79.7588 19.3145C79.7588 16.6925 82.329 15.1217 85.0642 15.1217C88.0469 15.1217 90.2752 16.2083 90.6053 19.2908H87.1981C86.9977 18.1807 86.3728 17.6728 85.0995 17.6728C83.8262 17.6728 83.2014 18.2397 83.2014 19.0546C83.2014 19.8696 83.838 20.2357 85.7833 20.5191C89.1434 21.0034 90.9944 21.8537 90.9944 24.7355C90.9944 27.6172 88.8958 29.1526 85.3471 29.1526C81.7984 29.1526 79.6291 27.5582 79.4994 24.6528ZM91.9493 22.3143V22.1135C91.9046 21.1906 92.0518 20.2683 92.3815 19.4053C92.7112 18.5422 93.2162 17.7572 93.8646 17.0999C94.513 16.4426 95.2906 15.9273 96.1481 15.5868C97.0056 15.2463 97.9244 15.0879 98.8463 15.1217C102.312 15.1217 105.39 17.1531 105.39 21.96V22.9875H95.7574C95.8517 25.2197 97.066 26.5307 99.0821 26.5307C100.803 26.5307 101.652 25.7866 101.888 24.6528H105.425C104.989 27.5582 102.678 29.1762 99.0113 29.1762C94.8967 29.1526 91.9493 26.6133 91.9493 22.3143ZM101.77 20.6963C101.652 18.6649 100.615 17.7437 98.8463 17.7437C98.0501 17.7399 97.2835 18.0454 96.7075 18.596C96.1315 19.1466 95.7909 19.8994 95.7574 20.6963H101.77ZM106.368 22.3143V22.1135C106.323 21.1885 106.471 20.2642 106.802 19.3995C107.133 18.5347 107.64 17.7485 108.291 17.0909C108.942 16.4332 109.723 15.9185 110.583 15.5795C111.443 15.2405 112.365 15.0846 113.289 15.1217C116.401 15.1217 119.266 16.4799 119.608 20.342H116.071C116.047 20.0105 115.958 19.6871 115.807 19.3911C115.656 19.095 115.448 18.8323 115.194 18.6186C114.94 18.4049 114.645 18.2445 114.328 18.1469C114.011 18.0494 113.678 18.0167 113.348 18.0507C111.426 18.0507 110.141 19.4916 110.141 22.0663V22.2671C110.141 24.9717 111.32 26.3535 113.43 26.3535C113.789 26.3742 114.149 26.3231 114.488 26.2032C114.827 26.0834 115.139 25.8971 115.406 25.6553C115.672 25.4135 115.888 25.121 116.041 24.7948C116.194 24.4686 116.28 24.1152 116.295 23.7552H119.655C119.455 26.944 117.144 29.1526 113.241 29.1526C109.339 29.1526 106.368 26.7078 106.368 22.3143ZM120.516 25.1488C120.516 22.0073 123.381 20.8262 127.483 20.8262H129.004V20.2947C129.004 18.7003 128.509 17.8263 126.823 17.8263C126.546 17.7902 126.265 17.8116 125.997 17.8892C125.729 17.9668 125.48 18.099 125.266 18.2774C125.051 18.4559 124.875 18.6768 124.75 18.9264C124.624 19.176 124.551 19.4488 124.536 19.7278H120.999C121.235 16.539 123.746 15.1217 127.024 15.1217C130.301 15.1217 132.647 16.4563 132.647 20.1058V28.8691H129.028V27.2511C128.574 27.8923 127.961 28.4045 127.25 28.7377C126.54 29.071 125.755 29.2139 124.972 29.1526C122.614 29.1526 120.516 27.9716 120.516 25.1488ZM129.004 24.1686V22.9875H127.589C125.432 22.9875 124.17 23.4599 124.17 24.889C124.17 25.8693 124.772 26.507 126.128 26.507C127.79 26.5543 129.051 25.6567 129.051 24.1686H129.004ZM135.265 15.3816H138.978V17.4366C139.383 16.7065 139.979 16.1007 140.702 15.6845C141.425 15.2683 142.247 15.0574 143.081 15.0745C143.877 15.0107 144.672 15.2063 145.347 15.6319C146.023 16.0576 146.543 16.6906 146.83 17.4366C147.325 16.6958 147.998 16.0913 148.787 15.6786C149.576 15.2659 150.456 15.0582 151.346 15.0745C153.833 15.0745 155.755 16.6453 155.755 20.2121V28.8219H152.065V20.6727C152.065 18.9483 151.298 18.1807 149.954 18.1807C149.597 18.1651 149.24 18.227 148.909 18.3621C148.577 18.4972 148.279 18.7024 148.034 18.9636C147.789 19.2248 147.603 19.5359 147.489 19.8757C147.374 20.2155 147.335 20.576 147.372 20.9325V28.8691H143.671V20.6727C143.671 18.9483 142.881 18.1807 141.572 18.1807C141.213 18.1633 140.855 18.2239 140.523 18.3582C140.19 18.4926 139.89 18.6975 139.643 18.9589C139.397 19.2204 139.21 19.5321 139.095 19.8728C138.98 20.2134 138.94 20.575 138.978 20.9325V28.8691H135.265V15.3816ZM158.301 15.3816H162.027V17.4956C162.471 16.7562 163.098 16.1445 163.848 15.7202C164.598 15.2959 165.445 15.0735 166.307 15.0745C169.596 15.0745 172.202 17.5193 172.202 21.96V22.1726C172.202 26.6133 169.69 29.1054 166.307 29.1054C165.446 29.1407 164.592 28.9393 163.838 28.5229C163.083 28.1064 162.457 27.491 162.027 26.7433V33.4516H158.301V15.3816ZM168.382 21.9836C168.382 19.2672 167.049 17.9326 165.175 17.9326C163.3 17.9326 161.897 19.2908 161.897 21.9836V22.1962C161.897 24.889 163.182 26.2 165.21 26.2C167.238 26.2 168.382 24.83 168.382 22.2435V21.9836Z" fill="#1D2D35"/>
<path fill-rule="evenodd" clip-rule="evenodd" d="M8.29231 6.34398C11.7492 2.59934 16.239 0.25 22.1142 0.25C31.5127 0.25 36.7935 6.49981 39.7102 12.7913C42.274 18.3214 43.2063 24.2705 43.62 26.9102C43.674 27.2548 43.7191 27.543 43.7579 27.7665C43.8168 28.1057 43.7857 28.4544 43.6676 28.7778C42.6068 31.6822 39.9337 33.802 36.8594 35.2153C33.7327 36.6527 29.8843 37.5087 25.937 37.7062C18.1715 38.0947 9.22605 35.94 4.62487 29.5359C3.8332 28.4341 4.24995 28.0101 4.40515 27.6362L4.40963 27.6254C4.41225 27.6191 4.41592 27.6103 4.4206 27.5991C4.42997 27.5768 4.44342 27.5448 4.46079 27.5038C4.49553 27.4219 4.54597 27.304 4.61075 27.1553C4.74025 26.8582 4.92752 26.4372 5.16173 25.9342C5.62828 24.9322 6.2896 23.5864 7.05866 22.2399C7.81707 20.9121 8.72868 19.4972 9.7086 18.4101C10.1981 17.8672 10.764 17.3387 11.3978 16.95C12.0276 16.5637 12.8681 16.2295 13.8322 16.3294C16.263 16.5814 17.838 18.4548 18.7418 19.5298L18.7614 19.5531C18.8341 19.6396 18.9031 19.7219 18.9689 19.8005C19.3829 20.2946 19.6698 20.637 19.9477 20.8917C20.0039 20.835 20.0665 20.7687 20.1355 20.6917C20.5816 20.1933 21.1113 19.4523 21.6769 18.5525C22.7992 16.7668 23.907 14.6068 24.5804 13.1654C25.0393 12.183 26.2064 11.7593 27.1871 12.2191C28.1678 12.6789 28.5907 13.848 28.1317 14.8304C27.4149 16.3648 26.2307 18.6792 24.995 20.6453C24.3816 21.6213 23.7158 22.5756 23.0545 23.3143C22.7251 23.6823 22.3511 24.0486 21.9419 24.3408C21.5613 24.6126 20.9649 24.955 20.2193 24.9937C18.9277 25.0606 17.9605 24.382 17.3605 23.8438C16.8454 23.3819 16.3465 22.7835 15.9426 22.2991C15.8802 22.2242 15.82 22.1521 15.7624 22.0836C14.7669 20.8996 14.1493 20.3622 13.5322 20.2512C13.5104 20.262 13.4816 20.2776 13.4451 20.3C13.2495 20.42 12.9697 20.6534 12.6187 21.0427C11.9177 21.8204 11.1695 22.9519 10.462 24.1907C9.7651 25.4108 9.15431 26.6516 8.71523 27.5946C8.63181 27.7738 8.5549 27.9416 8.48509 28.0956C12.1521 32.2976 18.9609 34.1223 25.7414 33.7831C29.2886 33.6057 32.6318 32.837 35.224 31.6453C37.6135 30.5468 39.1283 29.2053 39.7991 27.8593C39.7801 27.7404 39.7602 27.6148 39.7393 27.4828C39.3116 24.7838 38.4624 19.4252 36.154 14.4458C33.5456 8.81939 29.3267 4.17798 22.1142 4.17798C17.4382 4.17798 13.9611 5.98873 11.171 9.01094C8.31696 12.1025 6.1615 16.492 4.35779 21.6145C3.9976 22.6374 2.87785 23.1741 1.85674 22.8133C0.835635 22.4525 0.299853 21.3308 0.660038 20.3078C2.52786 15.0033 4.89944 10.0192 8.29231 6.34398Z" fill="#1D2D35"/>
</svg>
