<svg width="104" height="38" viewBox="0 0 104 38" fill="none" xmlns="http://www.w3.org/2000/svg">
<path d="M28.691 13.496H15.3427V17.4567H24.8101C24.341 23.0008 19.7214 25.3804 15.3587 25.3804C13.9766 25.3865 12.6071 25.1172 11.3302 24.5882C10.0534 24.0592 8.89468 23.2811 7.92181 22.2994C6.94894 21.3177 6.18138 20.1521 5.66396 18.8705C5.14653 17.5889 4.8896 16.217 4.90816 14.8351C4.90816 8.83897 9.55022 4.22251 15.3714 4.22251C19.8621 4.22251 22.5083 7.08514 22.5083 7.08514L25.2803 4.21291C25.2803 4.21291 21.7194 0.25 15.2264 0.25C6.95839 0.25 0.5625 7.22801 0.5625 14.7647C0.5625 22.15 6.57883 29.3519 15.4354 29.3519C23.2258 29.3519 28.9287 24.0147 28.9287 16.123C28.9287 14.4576 28.6867 13.496 28.6867 13.496H28.691Z" fill="#4885ED"/>
<path d="M39.6266 10.6269C34.1486 10.6269 30.223 14.9097 30.223 19.9025C30.223 24.971 34.0292 29.3327 39.6905 29.3327C44.8145 29.3327 49.012 25.4167 49.012 20.0113C49.012 13.8275 44.1289 10.6269 39.6266 10.6269ZM39.6799 14.3009C42.373 14.3009 44.9254 16.4791 44.9254 19.9878C44.9254 23.4208 42.3836 25.6619 39.6671 25.6619C36.6818 25.6619 34.3363 23.2716 34.3363 19.9601C34.3363 16.719 36.6605 14.3009 39.6884 14.3009H39.6799Z" fill="#DB3236"/>
<path d="M60.0765 10.6269C54.5986 10.6269 50.673 14.9097 50.673 19.9025C50.673 24.971 54.4792 29.3327 60.1405 29.3327C65.2645 29.3327 69.4619 25.4167 69.4619 20.0113C69.4619 13.8275 64.5789 10.6269 60.0765 10.6269ZM60.1299 14.3009C62.823 14.3009 65.3754 16.4791 65.3754 19.9878C65.3754 23.4208 62.8336 25.6619 60.1171 25.6619C57.1318 25.6619 54.7863 23.2716 54.7863 19.9601C54.7863 16.719 57.1105 14.3009 60.1384 14.3009H60.1299Z" fill="#F4C20D"/>
<path d="M80.1342 10.6376C75.1062 10.6376 71.155 15.0408 71.155 19.9835C71.155 25.6128 75.7363 29.3465 80.0468 29.3465C82.7122 29.3465 84.1302 28.2878 85.1643 27.0735V28.9179C85.1643 32.1452 83.2047 34.0781 80.2472 34.0781C77.3899 34.0781 75.957 31.9533 75.4495 30.7485L71.8544 32.2412C73.1295 34.9385 75.6968 37.75 80.2771 37.75C85.288 37.75 89.0857 34.6016 89.0857 27.9978V11.1994H85.1793V12.7838C83.9745 11.483 82.3241 10.6376 80.1363 10.6376H80.1342ZM80.4967 14.3052C82.9617 14.3052 85.4927 16.4098 85.4927 20.0038C85.4927 23.6575 82.9659 25.6704 80.4423 25.6704C77.762 25.6704 75.2682 23.4955 75.2682 20.0379C75.2682 16.4471 77.859 14.3052 80.4967 14.3052Z" fill="#4885ED"/>
<path d="M106.545 10.6152C101.803 10.6152 97.8207 14.3894 97.8207 19.9547C97.8207 25.8463 102.259 29.3401 106.99 29.3401C110.947 29.3401 113.387 27.1758 114.826 25.2354L111.592 23.0839C110.753 24.3846 109.35 25.6587 107.01 25.6587C104.381 25.6587 103.172 24.2194 102.422 22.8227L114.963 17.6199L114.324 16.0953C113.113 13.11 110.285 10.6152 106.545 10.6152ZM106.708 14.2124C108.417 14.2124 109.647 15.1208 110.169 16.2104L101.793 19.7106C101.431 17.0004 104 14.2124 106.698 14.2124H106.708Z" fill="#DB3236"/>
<path d="M91.8321 28.7857H95.9517V1.21807H91.8321V28.7857Z" fill="#3CBA54"/>
</svg>
