<svg width="135" height="38" viewBox="0 0 135 38" fill="none" xmlns="http://www.w3.org/2000/svg">
<path d="M30.7188 0.25H3.8125C1.9375 0.25 0.4375 1.75 0.4375 3.625V34.375C0.4375 36.25 1.9375 37.75 3.8125 37.75H30.7188C32.5938 37.75 34.0938 36.25 34.0938 34.375V3.625C34.0938 1.75 32.5938 0.25 30.7188 0.25ZM32.2188 34.375C32.2188 35.2188 31.5625 35.875 30.7188 35.875H3.8125C2.96875 35.875 2.3125 35.2188 2.3125 34.375V3.625C2.3125 2.78125 2.96875 2.125 3.8125 2.125H30.7188C31.5625 2.125 32.2188 2.78125 32.2188 3.625V34.375ZM8.875 32.125L13.0938 28.375L8.875 24.625V32.125ZM24.0625 16.9375C23.3125 16.1875 21.9063 15.25 19.5625 15.25C17.0313 15.25 14.4063 15.9062 12.5313 16.5625V5.875H8.78125V22.0938L11.4062 20.875C11.4062 20.875 15.7188 18.9062 19.4688 18.9062C21.3438 18.9062 21.8125 19.9375 21.8125 20.875V32.125H25.5625V20.875C25.6563 20.5938 25.6562 18.5312 24.0625 16.9375ZM19.0938 11.9688H22.8438C24.5312 10 25.375 8.03125 25.6563 5.875H21.9063C21.5313 8.03125 20.5938 10 19.0938 11.9688ZM122.688 20.7812V12.5313H126.437V20.7812C126.437 22.6562 127.094 23.5938 128.594 23.5938C130.094 23.5938 130.656 22.75 130.656 20.7812V12.5313H134.312V20.875C134.312 24.5312 132.531 26.6875 128.5 26.6875C124.469 26.5938 122.688 24.4375 122.688 20.7812ZM106.938 12.5313H110.688V17.5938L114.531 12.5313H118.844L114.156 17.9688L119.219 26.4062H115L111.719 20.875L110.688 22.0938V26.4062H106.938V12.5313ZM89.125 19.375C89.125 14.3125 92.5938 12.1562 95.9687 12.1562C99.3437 12.1562 102.812 14.3125 102.812 19.375C102.812 24.4375 99.3437 26.5938 95.9687 26.5938C92.5938 26.5938 89.125 24.5312 89.125 19.375ZM98.9688 19.375C98.9688 16.8438 97.8438 15.25 95.875 15.25C93.9062 15.25 92.7812 16.8438 92.7812 19.375C92.7812 21.9062 93.9062 23.5938 95.875 23.5938C97.8438 23.5938 98.9688 22 98.9688 19.375ZM74.0312 12.5313H79.4688C83.0312 12.5313 85.1875 13.75 85.1875 17.0312C85.1875 19.1875 84.25 20.5 82.4688 21.0625L85.375 26.4062H81.4375L78.7188 21.625H77.6875V26.4062H74.0312V12.5313ZM79.375 18.7188C80.875 18.7188 81.625 18.25 81.625 17.125C81.625 16 80.9688 15.5312 79.375 15.5312H77.7812V18.7188H79.375ZM59.6875 12.5313H69.625V15.625H63.4375V17.875H67.8437V20.7812H63.4375V23.3125H69.9063V26.3125H59.6875V12.5313ZM42.7187 12.5313H46.4688V17.6875H51.0625V12.5313H54.8125V26.4062H51.0625V20.7812H46.4688V26.4062H42.7187V12.5313Z" fill="#430098"/>
</svg>
