<svg width="140" height="38" viewBox="0 0 140 38" fill="none" xmlns="http://www.w3.org/2000/svg">
<path fill-rule="evenodd" clip-rule="evenodd" d="M54.8458 14.6425C53.0693 14.6425 52.2403 16.0637 51.7666 16.8927C51.5297 17.3664 51.5297 17.8402 51.2928 17.8402C51.056 17.8402 51.1744 17.4849 51.056 16.7743C50.8191 15.7084 49.9901 14.6425 48.2136 14.6425C46.3187 14.6425 45.4896 16.1821 45.1343 17.1296C44.8975 17.7217 44.8975 17.8402 44.6606 17.8402C44.4237 17.8402 44.6606 17.3664 44.779 16.7743C45.0159 15.7084 44.8975 14.8794 44.8975 14.8794H41.9367V26.012H45.9634C45.9634 26.012 45.9634 21.3931 45.9634 20.4457C45.9634 19.3798 46.4371 17.9586 47.1477 17.9586C48.0952 17.9586 48.2136 18.6692 48.2136 19.972V26.012H52.2403C52.2403 26.012 52.2403 21.2747 52.2403 20.4457C52.2403 19.4982 52.5956 17.9586 53.543 17.9586C54.4905 17.9586 54.6089 18.9061 54.6089 19.972V26.012H58.6356C58.6356 26.012 58.6356 21.63 58.6356 19.4982C58.5172 16.6559 57.4513 14.6425 54.8458 14.6425Z" fill="#101828"/>
<path fill-rule="evenodd" clip-rule="evenodd" d="M123.537 14.6425C121.76 14.6425 120.931 16.0637 120.457 16.8927C120.22 17.3664 120.22 17.8402 119.984 17.8402C119.747 17.8402 119.865 17.3664 119.747 16.7743C119.391 15.7084 118.681 14.6425 116.904 14.6425C115.009 14.6425 114.18 16.1821 113.825 17.1296C113.588 17.7217 113.588 17.8402 113.351 17.8402C113.114 17.8402 113.351 17.3664 113.47 16.7743C113.707 15.7084 113.588 14.8794 113.588 14.8794H110.627V26.012H114.654C114.654 26.012 114.654 21.3931 114.654 20.4457C114.654 19.3798 115.128 17.9586 115.838 17.9586C116.786 17.9586 116.904 18.6692 116.904 19.972V26.012H120.931C120.931 26.012 120.931 21.2747 120.931 20.4457C120.931 19.4982 121.286 17.9586 122.234 17.9586C123.181 17.9586 123.3 18.9061 123.3 19.972V26.012H127.326C127.326 26.012 127.326 21.63 127.326 19.4982C127.208 16.6559 126.26 14.6425 123.537 14.6425Z" fill="#101828"/>
<path d="M65.3863 14.6425C62.307 14.6425 60.0568 15.8268 60.0568 15.8268V19.1429C60.0568 19.1429 62.5439 17.7217 64.5572 17.7217C66.0969 17.7217 66.3337 18.5508 66.2153 19.2614C66.2153 19.2614 65.7416 19.1429 64.3204 19.1429C61.0043 19.1429 59.3462 20.6826 59.3462 23.0512C59.3462 25.3014 61.2411 26.2489 62.7808 26.2489C65.031 26.2489 66.0969 24.7092 66.4522 23.9987C66.689 23.5249 66.689 23.1696 66.9259 23.1696C67.1628 23.1696 67.0443 23.4065 67.0443 23.8802C67.0443 24.7092 67.0443 25.4198 67.1628 26.012H70.242V20.5641C70.3604 17.1296 69.0577 14.6425 65.3863 14.6425ZM64.4388 23.5249C63.4913 23.7618 63.0176 23.4065 63.0176 22.8143C63.0176 21.9853 63.9651 21.63 65.2678 21.63H66.3337C66.3337 21.9853 65.5047 23.2881 64.4388 23.5249Z" fill="#101828"/>
<path fill-rule="evenodd" clip-rule="evenodd" d="M76.9926 11.5633H81.0193V26.1304H76.9926V11.5633Z" fill="#101828"/>
<path fill-rule="evenodd" clip-rule="evenodd" d="M85.5198 20.5641C85.5198 19.6167 86.4672 18.6692 88.1253 18.6692C90.0202 18.6692 91.4414 19.6167 91.7967 19.7351V15.8268C91.7967 15.8268 90.6124 14.6425 87.6515 14.6425C84.5723 14.6425 82.0852 16.419 82.0852 20.3273C82.0852 24.2355 84.4539 26.3673 87.6515 26.3673C90.257 26.3673 91.7967 24.9461 91.7967 24.9461V21.2747C91.3229 21.5116 89.9018 22.459 88.1253 22.459C86.2304 22.459 85.5198 21.63 85.5198 20.5641Z" fill="#101828"/>
<path fill-rule="evenodd" clip-rule="evenodd" d="M99.9685 14.6425C97.5999 14.6425 96.7708 16.8927 96.534 17.248C96.2971 17.6033 96.2971 17.8402 96.0602 17.8402C95.8234 17.8402 95.9418 17.3664 96.0602 17.0111C96.2971 16.419 96.6524 14.9978 96.6524 13.1029C96.6524 11.8001 96.534 11.4448 96.534 11.4448H92.981V26.012H97.0077C97.0077 26.012 97.0077 21.3931 97.0077 20.4457C97.0077 19.4982 97.363 17.9586 98.4289 17.9586C99.2579 17.9586 99.4948 18.5508 99.4948 19.8535V26.012H103.521C103.521 26.012 103.521 22.5775 103.521 20.0904C103.758 17.3664 103.285 14.6425 99.9685 14.6425Z" fill="#101828"/>
<path fill-rule="evenodd" clip-rule="evenodd" d="M105.061 14.9978V26.1304H109.088V14.9978C109.088 14.9978 108.377 15.3531 107.074 15.3531C105.772 15.3531 105.061 14.9978 105.061 14.9978Z" fill="#101828"/>
<path fill-rule="evenodd" clip-rule="evenodd" d="M107.074 14.7609C108.448 14.7609 109.562 14.0186 109.562 13.1029C109.562 12.1872 108.448 11.4448 107.074 11.4448C105.701 11.4448 104.587 12.1872 104.587 13.1029C104.587 14.0186 105.701 14.7609 107.074 14.7609Z" fill="#101828"/>
<path fill-rule="evenodd" clip-rule="evenodd" d="M71.6632 26.1304H75.6899V14.9978C75.6899 14.9978 74.9793 15.3531 73.6765 15.3531C72.3738 15.3531 71.6632 14.9978 71.6632 14.9978V26.1304Z" fill="#101828"/>
<path fill-rule="evenodd" clip-rule="evenodd" d="M73.6765 14.7609C75.0501 14.7609 76.1636 14.0186 76.1636 13.1029C76.1636 12.1872 75.0501 11.4448 73.6765 11.4448C72.3029 11.4448 71.1894 12.1872 71.1894 13.1029C71.1894 14.0186 72.3029 14.7609 73.6765 14.7609Z" fill="#101828"/>
<path d="M135.261 14.6425C133.13 14.6425 132.182 16.1821 131.827 17.1296C131.59 17.7217 131.59 17.8402 131.353 17.8402C131.116 17.8402 131.353 17.3664 131.471 16.7743C131.708 15.7084 131.59 14.8794 131.59 14.8794H128.629V29.0912H132.656C132.656 29.0912 132.656 26.7226 132.656 24.5908C133.13 25.4198 134.077 26.2489 135.38 26.2489C138.341 26.2489 139.762 23.7618 139.762 20.4457C139.762 16.7743 137.985 14.6425 135.261 14.6425ZM134.195 23.7618C133.248 23.7618 132.537 22.5775 132.537 20.9194C132.537 19.3798 133.248 18.077 134.077 18.077C135.261 18.077 135.735 19.1429 135.735 20.9194C135.735 22.6959 135.261 23.7618 134.195 23.7618Z" fill="#101828"/>
<path fill-rule="evenodd" clip-rule="evenodd" d="M27.3695 18.077H28.1985C28.317 17.7217 28.317 17.248 28.1985 16.6559C27.9617 15.8268 27.7248 15.2347 27.2511 15.3531C26.7773 15.4715 26.6589 16.0637 26.8958 17.0111C27.0142 17.3664 27.2511 17.8402 27.3695 18.077Z" fill="#101828"/>
<path fill-rule="evenodd" clip-rule="evenodd" d="M22.9875 18.7876C23.3428 18.9061 23.5797 19.0245 23.6981 18.9061C23.6981 18.9061 23.6981 18.7876 23.6981 18.5508C23.4612 18.1955 23.1059 17.9586 22.7506 17.7217C21.9216 17.3664 20.9742 17.4849 20.2636 18.077C20.0267 18.3139 19.7898 18.5508 19.7898 18.6692C19.7898 18.6692 19.7898 18.7876 19.9083 18.7876C20.1451 18.7876 20.8557 18.4323 21.6847 18.4323C22.1585 18.4323 22.6322 18.5508 22.9875 18.7876Z" fill="#101828"/>
<path fill-rule="evenodd" clip-rule="evenodd" d="M22.2769 19.1429C21.8032 19.2614 21.5663 19.3798 21.3295 19.4982C21.211 19.6167 21.0926 19.7351 21.0926 19.8535V19.972H21.211C21.3295 19.972 21.5663 19.8535 21.5663 19.8535C22.2769 19.6167 22.6322 19.6167 23.1059 19.7351H23.4612V19.6167C23.3428 19.3798 22.8691 19.1429 22.2769 19.1429Z" fill="#101828"/>
<path fill-rule="evenodd" clip-rule="evenodd" d="M25.9483 20.801C26.3036 20.9194 26.6589 20.9194 26.7773 20.6825C26.8958 20.4457 26.7773 20.0904 26.422 19.972C26.0667 19.8535 25.7114 19.8535 25.593 20.0904C25.4746 20.2088 25.593 20.5641 25.9483 20.801Z" fill="#101828"/>
<path fill-rule="evenodd" clip-rule="evenodd" d="M28.0801 18.9061C27.8432 18.9061 27.6064 19.1429 27.6064 19.6167C27.6064 19.972 27.8432 20.3273 28.0801 20.3273C28.317 20.3273 28.5538 20.0904 28.5538 19.6167C28.5538 19.2614 28.317 18.9061 28.0801 18.9061Z" fill="#101828"/>
<path fill-rule="evenodd" clip-rule="evenodd" d="M10.0784 25.5383C9.95995 25.4198 9.95995 25.5383 9.84152 25.5383C9.72309 25.5383 9.72309 25.5383 9.60466 25.5383C9.36779 25.5383 9.24936 25.4198 9.13093 25.3014C9.01249 25.0645 9.01249 24.8277 9.13093 24.4724C9.13093 24.4724 9.13093 24.354 9.24936 24.354C9.48622 23.8802 9.84152 23.0512 9.36779 22.3406C9.0125 21.7484 8.53876 21.3931 7.9466 21.2747C7.35444 21.1563 6.76228 21.3931 6.40698 21.8669C5.81482 22.459 5.69639 23.4065 5.81482 23.7618C5.81482 23.8802 5.93325 23.8802 5.93325 23.8802C6.05169 23.8802 6.17012 23.7618 6.28855 23.5249C6.28855 23.5249 6.28855 23.5249 6.28855 23.4065C6.28855 23.2881 6.40698 23.0512 6.52542 22.8143C6.64385 22.5775 6.88071 22.459 7.23601 22.3406C7.47287 22.2222 7.82817 22.3406 8.06504 22.459C8.42033 22.6959 8.6572 23.2881 8.42033 23.7618C8.3019 23.9987 8.18347 24.4724 8.18347 24.8277C8.3019 25.6567 8.77563 25.8936 9.13093 26.012C9.60466 26.012 9.84152 25.7751 9.95995 25.6567C10.1968 25.5383 10.1968 25.5383 10.0784 25.5383Z" fill="#101828"/>
<path d="M34.7123 23.9987C34.7123 23.9987 34.5939 23.5249 34.4754 23.0512C34.357 22.5775 34.2386 22.2222 34.2386 22.2222C34.8307 21.3931 34.8307 20.5641 34.7123 20.0904C34.5939 19.4982 34.357 19.0245 33.8833 18.5508C33.4095 18.077 32.4621 17.6033 31.1593 17.248C31.0409 17.248 30.5672 17.0111 30.4487 17.0111C30.4487 17.0111 30.4487 15.3531 30.3303 14.6425C30.3303 14.1688 30.2119 13.3397 29.975 12.6292C29.7381 11.5633 29.146 10.7342 28.5538 10.1421C30.3303 8.36559 31.3962 6.35224 31.3962 4.69419C31.3962 1.49652 27.3695 0.430626 22.5138 2.44398L21.4479 2.9177L19.553 1.02279C13.9867 -3.83294 -3.65976 15.59 2.02499 20.4457L3.20931 21.5116C2.85401 22.3406 2.73558 23.2881 2.85401 24.354C2.97245 25.6567 3.68304 26.9595 4.74893 27.9069C5.81482 28.8544 7.11758 29.4465 8.42033 29.4465C10.5521 34.5391 15.6447 37.6184 21.4479 37.7368C27.7248 37.9737 33.0542 35.0129 35.186 29.6834C35.3045 29.3281 35.8966 27.6701 35.8966 26.1304C36.1335 24.7092 35.3045 23.9987 34.7123 23.9987ZM9.01249 28.0253C8.77563 28.0253 8.6572 28.0253 8.42033 28.0253C6.52542 28.0253 4.51207 26.2489 4.2752 24.2355C4.03834 21.9853 5.22266 20.3272 7.23601 19.8535C7.47287 19.8535 7.82817 19.7351 8.06504 19.7351C9.24936 19.8535 10.9074 20.6825 11.2627 23.1696C11.618 25.4198 11.1443 27.6701 9.01249 28.0253ZM6.99915 18.5508C5.69639 18.7876 4.6305 19.4982 3.91991 20.4457C3.56461 20.0904 2.73558 19.4982 2.61715 19.1429C1.55126 17.1296 3.80147 13.1029 5.34109 10.8527C9.24936 5.28635 15.4078 1.02279 18.2502 1.85181C18.7239 1.97025 20.2636 3.74673 20.2636 3.74673C20.2636 3.74673 17.4212 5.28635 14.8157 7.53656C11.2627 10.2605 8.53876 14.2872 6.99915 18.5508ZM26.8958 27.1963C26.8958 27.0779 26.8958 26.9595 26.8958 26.9595C26.8958 26.9595 23.935 27.4332 21.0926 26.3673C21.4479 25.4198 22.1585 25.7751 23.4612 25.7751C25.7114 25.8936 27.6064 25.5383 29.146 25.183C30.4487 24.8277 32.1068 24.1171 33.4095 23.0512C33.8833 23.9987 34.0017 25.0645 34.0017 25.0645C34.0017 25.0645 34.357 24.9461 34.5939 25.183C34.8307 25.3014 35.0676 25.6567 34.9492 26.6042C34.7123 28.2622 34.0017 29.565 32.8174 30.8677C32.1068 31.6968 31.2778 32.2889 30.2119 32.7626C29.7381 32.9995 29.146 33.2364 28.5538 33.4732C24.0534 34.8944 19.553 33.3548 18.1318 29.9203C18.0133 29.6834 17.8949 29.4465 17.8949 29.0912C17.3028 26.841 17.7765 24.1171 19.4345 22.459C19.553 22.3406 19.6714 22.2222 19.6714 22.1037C19.6714 21.9853 19.553 21.8669 19.553 21.7484C18.9608 20.9194 16.9475 19.4982 17.4212 16.6559C17.6581 14.6425 19.4345 13.2213 21.0926 13.3397H21.4479C22.1585 13.3397 22.7506 13.4582 23.3428 13.4582C24.2903 13.4582 25.2377 13.3397 26.1852 12.5107C26.5405 12.2739 26.7773 11.9186 27.2511 11.9186H27.7248C27.9617 11.9186 28.1985 12.037 28.4354 12.1554C29.2644 12.7476 29.3828 14.0503 29.3828 14.9978C29.3828 15.59 29.5013 16.8927 29.5013 17.248C29.5013 18.077 29.7381 18.3139 30.2119 18.4323C30.4487 18.5508 30.6856 18.5508 31.0409 18.6692C32.1068 19.0245 32.8174 19.2614 33.1727 19.7351C33.4095 19.972 33.528 20.2088 33.528 20.5641C33.6464 21.5116 32.8174 22.6959 30.5672 23.7618C28.0801 24.9461 25.0009 25.183 22.9875 24.9461C22.8691 24.9461 22.2769 24.8277 22.2769 24.8277C20.6189 24.5908 19.6714 26.7226 20.6189 28.2622C21.211 29.2097 22.9875 29.8018 24.764 29.8018C28.7907 29.8018 31.8699 28.0254 33.0542 26.6042C33.0542 26.6042 33.0542 26.6042 33.1727 26.4857C33.1727 26.3673 33.1727 26.3673 33.0542 26.3673C32.1068 26.9595 27.9617 29.565 23.4612 28.8544C23.4612 28.8544 22.8691 28.7359 22.3953 28.6175C22.04 28.4991 21.211 28.0254 21.0926 27.1963C24.5271 28.2622 26.8958 27.1963 26.8958 27.1963ZM14.2235 10.8527C15.6447 9.19462 17.3028 7.89186 18.8424 7.06283C18.8424 7.06283 18.9608 7.06283 18.9608 7.18127C18.8424 7.41813 18.6055 7.89186 18.4871 8.24716C18.4871 8.24716 18.4871 8.36559 18.6055 8.36559C19.553 7.77343 21.211 7.06283 22.6322 6.9444C22.7506 6.9444 22.7506 7.06283 22.6322 7.06283C22.3953 7.18127 22.1585 7.41813 22.04 7.655V7.77343C23.1059 7.77343 24.5271 8.12873 25.4746 8.72089C25.593 8.72089 25.4746 8.83932 25.4746 8.83932C24.0534 8.48402 21.6847 8.24716 19.3161 8.83932C17.0659 9.31305 15.4078 10.1421 14.2235 10.8527C14.2235 11.0895 14.1051 10.9711 14.2235 10.8527Z" fill="#101828"/>
</svg>
