<svg width="106" height="30" viewBox="0 0 106 30" fill="none" xmlns="http://www.w3.org/2000/svg">
<path d="M23.1525 5.682C23.132 5.53298 23.0019 5.45031 22.8938 5.44131C22.7866 5.43231 20.6859 5.40039 20.6859 5.40039C20.6859 5.40039 18.929 3.6943 18.7555 3.52075C18.582 3.34719 18.243 3.39959 18.1112 3.43888C18.1096 3.4397 17.7813 3.54121 17.2287 3.71231C17.1362 3.41269 17.0003 3.04429 16.8063 2.67425C16.1808 1.48065 15.2648 0.849467 14.1579 0.847834C14.1563 0.847834 14.1554 0.847834 14.1538 0.847834C14.0769 0.847834 14.0007 0.855202 13.9238 0.861748C13.8911 0.822452 13.8583 0.783979 13.8239 0.746316C13.3417 0.230565 12.7237 -0.020763 11.9828 0.00134071C10.5534 0.0422736 9.12976 1.0746 7.97545 2.90839C7.16333 4.19859 6.54524 5.81956 6.37005 7.07454C4.72864 7.58292 3.58088 7.9382 3.5555 7.94641C2.72702 8.20672 2.70082 8.2321 2.59276 9.01313C2.51253 9.60334 0.344727 26.3662 0.344727 26.3662L18.5115 29.5082L26.3854 27.5508C26.3854 27.5508 23.173 5.83102 23.1525 5.682ZM16.3192 3.99393C15.9009 4.12328 15.4252 4.27064 14.9094 4.43028C14.8988 3.70658 14.8128 2.69964 14.4756 1.8294C15.5603 2.03489 16.094 3.26205 16.3192 3.99393ZM13.959 4.72499C13.0069 5.01969 11.968 5.34143 10.9259 5.664C11.2189 4.54161 11.7748 3.42415 12.4576 2.69145C12.7114 2.41884 13.0666 2.11511 13.4874 1.94156C13.8828 2.76676 13.9688 3.93499 13.959 4.72499ZM12.0114 0.952618C12.347 0.945251 12.6295 1.01893 12.871 1.17775C12.4846 1.37832 12.1113 1.66649 11.7609 2.04225C10.853 3.01646 10.1571 4.52851 9.87961 5.98736C9.01428 6.25505 8.16779 6.51787 7.38843 6.75856C7.88048 4.46221 9.8051 1.01647 12.0114 0.952618Z" fill="#95BF47"/>
<path d="M22.8946 5.44215C22.7874 5.43315 20.6867 5.40123 20.6867 5.40123C20.6867 5.40123 18.9299 3.69513 18.7563 3.52158C18.6916 3.45691 18.6041 3.42334 18.5123 3.40943L18.5132 29.5074L26.3862 27.5508C26.3862 27.5508 23.1738 5.83185 23.1533 5.68284C23.1328 5.53382 23.0019 5.45115 22.8946 5.44215Z" fill="#5E8E3E"/>
<path d="M14.1481 9.49043L13.2337 12.9116C13.2337 12.9116 12.2136 12.4474 11.0045 12.5235C9.23122 12.6357 9.21238 13.754 9.23043 14.0348C9.32702 15.5648 13.3523 15.8989 13.5783 19.4829C13.756 22.3024 12.0826 24.2311 9.67168 24.3834C6.77771 24.566 5.18461 22.8591 5.18461 22.8591L5.79779 20.2508C5.79779 20.2508 7.40151 21.4608 8.68517 21.3798C9.5235 21.3266 9.8231 20.6446 9.79281 20.1624C9.66676 18.1665 6.38884 18.2844 6.18174 15.0049C6.00735 12.2452 7.81989 9.44867 11.819 9.19652C13.3597 9.09748 14.1481 9.49043 14.1481 9.49043Z" fill="white"/>
<path d="M36.754 16.6543C35.8486 16.163 35.3834 15.7489 35.3834 15.1797C35.3834 14.4554 36.0297 13.9901 37.039 13.9901C38.2139 13.9901 39.263 14.4814 39.263 14.4814L40.0904 11.9464C40.0904 11.9464 39.3296 11.3512 37.0902 11.3512C33.9737 11.3512 31.8139 13.1359 31.8139 15.645C31.8139 17.0675 32.8224 18.154 34.1678 18.9294C35.2542 19.5498 35.6424 19.9899 35.6424 20.6362C35.6424 21.3086 35.0992 21.8518 34.0907 21.8518C32.5877 21.8518 31.1684 21.0755 31.1684 21.0755L30.289 23.6105C30.289 23.6105 31.6004 24.4899 33.8065 24.4899C37.0138 24.4899 39.3158 22.9122 39.3158 20.067C39.315 18.5421 38.1514 17.4557 36.754 16.6543Z" fill="black"/>
<path d="M49.5314 11.326C47.9536 11.326 46.7121 12.0763 45.7556 13.2139L45.7036 13.1879L47.0743 6.0238H43.5048L40.0392 24.2577H43.6087L44.7983 18.0249C45.2635 15.671 46.4791 14.2232 47.6175 14.2232C48.4189 14.2232 48.7299 14.7664 48.7299 15.5427C48.7299 16.0339 48.6779 16.6291 48.5748 17.1204L47.2302 24.2585H50.7998L52.196 16.8873C52.3514 16.111 52.4552 15.1805 52.4552 14.5593C52.4537 12.5416 51.3934 11.326 49.5314 11.326Z" fill="black"/>
<path d="M60.5233 11.326C56.2293 11.326 53.3852 15.2057 53.3852 19.5246C53.3852 22.2919 55.0918 24.5159 58.2993 24.5159C62.5151 24.5159 65.3601 20.7402 65.3601 16.3173C65.3601 13.7571 63.8596 11.326 60.5233 11.326ZM58.7646 21.7754C57.5488 21.7754 57.0314 20.741 57.0314 19.4475C57.0314 17.4045 58.0923 14.0681 60.0319 14.0681C61.2993 14.0681 61.7124 15.1545 61.7124 16.215C61.7124 18.413 60.6531 21.7754 58.7646 21.7754Z" fill="black"/>
<path d="M74.49 11.326C72.0806 11.326 70.7134 13.4469 70.7134 13.4469H70.6623L70.8693 11.5331H67.7139C67.559 12.8266 67.2737 14.7916 66.99 16.2661L64.5069 29.3269H68.0764L69.0585 24.0506H69.1367C69.1367 24.0506 69.869 24.5159 71.2318 24.5159C75.4214 24.5159 78.1628 20.2229 78.1628 15.8772C78.1628 13.473 77.1019 11.326 74.49 11.326ZM71.0759 21.8266C70.1493 21.8266 69.601 21.3093 69.601 21.3093L70.196 17.9729C70.6101 15.7489 71.7738 14.2743 73.0155 14.2743C74.1019 14.2743 74.4378 15.2828 74.4378 16.2402C74.4378 18.5421 73.0672 21.8266 71.0759 21.8266Z" fill="black"/>
<path d="M83.2578 6.20489C82.1203 6.20489 81.2149 7.11025 81.2149 8.2738C81.2149 9.33428 81.8872 10.0586 82.8959 10.0586H82.9475C84.06 10.0586 85.0165 9.30826 85.0426 7.98964C85.0426 6.95513 84.3442 6.20489 83.2578 6.20489Z" fill="black"/>
<path d="M78.2665 24.2577H81.8351L84.267 11.611H80.6714L78.2665 24.2577Z" fill="black"/>
<path d="M93.3452 11.5851H90.8621L90.991 10.9899C91.198 9.77434 91.9224 8.6879 93.1121 8.6879C93.747 8.6879 94.2496 8.86898 94.2496 8.86898L94.948 6.07579C94.948 6.07579 94.3273 5.76561 93.0078 5.76561C91.7405 5.76561 90.4741 6.12772 89.5165 6.95513C88.3008 7.98964 87.7318 9.48934 87.4475 10.9899L87.3447 11.5851H85.6888L85.1714 14.2752H86.8274L84.9393 24.2585H88.5088L90.3969 14.2752H92.8539L93.3452 11.5851Z" fill="black"/>
<path d="M101.932 11.6111C101.932 11.6111 99.7003 17.2324 98.6985 20.3009H98.6464C98.5785 19.3127 97.767 11.6111 97.767 11.6111H94.0165L96.1642 23.2232C96.2164 23.4814 96.1903 23.6373 96.0865 23.8184C95.6719 24.6198 94.9741 25.3961 94.1464 25.9653C93.4741 26.4565 92.7241 26.7667 92.1295 26.9737L93.1121 30C93.8365 29.8449 95.336 29.2498 96.6034 28.0602C98.2333 26.5345 99.7328 24.1805 101.284 20.9732L105.656 11.6102H101.932V11.6111Z" fill="black"/>
</svg>
