<svg width="74" height="30" viewBox="0 0 74 30" fill="none" xmlns="http://www.w3.org/2000/svg">
<path fill-rule="evenodd" clip-rule="evenodd" d="M73.0483 15.5007C73.0483 10.3738 70.565 6.32844 65.8186 6.32844C61.0523 6.32844 58.1684 10.3738 58.1684 15.4606C58.1684 21.4887 61.573 24.5327 66.4595 24.5327C68.8427 24.5327 70.6451 23.992 72.0069 23.231V19.2256C70.6451 19.9065 69.083 20.3271 67.1003 20.3271C65.1578 20.3271 63.4355 19.6462 63.2152 17.283H73.0082C73.0082 17.0227 73.0483 15.9813 73.0483 15.5007ZM63.1551 13.5981C63.1551 11.3351 64.5369 10.3939 65.7986 10.3939C67.0202 10.3939 68.322 11.3351 68.322 13.5981H63.1551Z" fill="#635BFF"/>
<path fill-rule="evenodd" clip-rule="evenodd" d="M50.4381 6.32844C48.4755 6.32844 47.2138 7.24967 46.5129 7.89052L46.2526 6.64887H41.8467V30L46.8534 28.9386L46.8734 23.271C47.5943 23.7917 48.6558 24.5327 50.4181 24.5327C54.0029 24.5327 57.2672 21.6489 57.2672 15.3004C57.2472 9.49266 53.9428 6.32844 50.4381 6.32844ZM49.2365 20.1268C48.055 20.1268 47.354 19.7063 46.8734 19.1856L46.8534 11.7557C47.374 11.1749 48.095 10.7744 49.2365 10.7744C51.059 10.7744 52.3206 12.8171 52.3206 15.4406C52.3206 18.1242 51.079 20.1268 49.2365 20.1268Z" fill="#635BFF"/>
<path fill-rule="evenodd" clip-rule="evenodd" d="M34.9575 5.14686L39.9842 4.06542V0L34.9575 1.06142V5.14686Z" fill="#635BFF"/>
<path d="M39.9842 6.66889H34.9575V24.1923H39.9842V6.66889Z" fill="#635BFF"/>
<path fill-rule="evenodd" clip-rule="evenodd" d="M29.5703 8.15087L29.2499 6.66889H24.9241V24.1923H29.9308V12.3164C31.1124 10.7744 33.115 11.0547 33.7359 11.275V6.66889C33.095 6.42857 30.7519 5.98798 29.5703 8.15087Z" fill="#635BFF"/>
<path fill-rule="evenodd" clip-rule="evenodd" d="M19.557 2.3231L14.6704 3.36449L14.6504 19.4059C14.6504 22.3698 16.8734 24.5527 19.8373 24.5527C21.4795 24.5527 22.6811 24.2523 23.342 23.8919V19.8264C22.7011 20.0868 19.5369 21.008 19.5369 18.0441V10.9346H23.342V6.66889H19.5369L19.557 2.3231Z" fill="#635BFF"/>
<path fill-rule="evenodd" clip-rule="evenodd" d="M6.0189 11.7557C6.0189 10.9746 6.65976 10.6742 7.72117 10.6742C9.2432 10.6742 11.1658 11.1348 12.6878 11.9559V7.24967C11.0256 6.58878 9.38339 6.32844 7.72117 6.32844C3.65575 6.32844 0.952148 8.45127 0.952148 11.996C0.952148 17.5234 8.56229 16.6422 8.56229 19.0254C8.56229 19.9466 7.76123 20.247 6.63973 20.247C4.97752 20.247 2.85468 19.5661 1.17244 18.6449V23.4112C3.03492 24.2123 4.91744 24.5527 6.63973 24.5527C10.8053 24.5527 13.6691 22.49 13.6691 18.9052C13.6491 12.9373 6.0189 13.9987 6.0189 11.7557Z" fill="#635BFF"/>
</svg>
