<svg width="125" height="38" viewBox="0 0 125 38" fill="none" xmlns="http://www.w3.org/2000/svg">
<path d="M87.8748 7.59999H81.2748C81.1248 7.59999 80.9748 7.75001 80.9748 7.90001V11.725C80.9748 11.875 81.1248 12.025 81.2748 12.025H87.8748C88.0248 12.025 88.1748 11.875 88.1748 11.725V7.90001C88.2498 7.75001 88.0998 7.59999 87.8748 7.59999ZM87.7998 13.3H75.0498C74.8998 13.3 74.6748 13.45 74.5998 13.6L72.9498 19.825L72.8748 20.125L70.9248 13.45C70.8498 13.3 70.6998 13.15 70.4748 13.15H65.5248C65.3748 13.15 65.1498 13.3 65.0748 13.45L63.1998 19.675L63.1248 19.975L63.0498 19.825L62.2998 16.75L61.4748 13.675C61.3998 13.525 61.2498 13.375 61.0248 13.375H51.0498V7.97499C51.0498 7.82499 50.8248 7.6 50.5998 7.675L44.2998 9.625C44.0748 9.7 43.9998 9.77499 43.9998 9.925V13.3H42.3498C42.1998 13.3 42.0498 13.45 42.0498 13.6V18.4C42.0498 18.55 42.1998 18.7 42.3498 18.7H43.9998V24.55C43.9998 28.675 46.2498 30.625 50.3748 30.625C52.0998 30.625 53.7498 30.25 54.8748 29.65V24.7C54.8748 24.475 54.6498 24.4 54.4998 24.4C53.8248 24.7 53.2998 24.775 52.6998 24.775C51.5748 24.775 50.9748 24.325 50.9748 23.05V18.775H54.5748C54.7248 18.775 54.8748 18.625 54.8748 18.475V14.425L59.5998 30.1C59.6748 30.25 59.8248 30.4 60.0498 30.4H65.2998C65.4498 30.4 65.6748 30.25 65.7498 30.1L67.9998 23.125L69.1248 26.725L70.1748 30.025C70.2498 30.175 70.3998 30.325 70.6248 30.325H75.8748C76.0248 30.325 76.2498 30.175 76.3248 30.025L81.1248 14.275V30.025C81.1248 30.175 81.2748 30.325 81.4248 30.325H87.7998C87.9498 30.325 88.0998 30.175 88.0998 30.025V13.675C88.0998 13.45 87.9498 13.3 87.7998 13.3ZM96.1998 7.59999H89.8248C89.6748 7.59999 89.5248 7.75001 89.5248 7.90001V30.025C89.5248 30.175 89.6748 30.325 89.8248 30.325H96.1998C96.3498 30.325 96.4998 30.175 96.4998 30.025V7.90001C96.4998 7.75001 96.3498 7.59999 96.1998 7.59999ZM104.675 7.59999H98.0748C97.9248 7.59999 97.7748 7.75001 97.7748 7.90001V11.725C97.7748 11.875 97.9248 12.025 98.0748 12.025H104.675C104.825 12.025 104.975 11.875 104.975 11.725V7.90001C105.05 7.75001 104.9 7.59999 104.675 7.59999ZM104.6 13.3H98.2248C98.0748 13.3 97.9248 13.45 97.9248 13.6V30.025C97.9248 30.175 98.0748 30.325 98.2248 30.325H104.6C104.75 30.325 104.9 30.175 104.9 30.025V13.675C104.9 13.45 104.75 13.3 104.6 13.3ZM115.175 12.925C109.55 12.925 105.575 17.05 105.575 21.85V21.925C105.575 26.725 109.55 30.775 115.1 30.775C120.725 30.775 124.7 26.65 124.7 21.85V21.775C124.7 16.975 120.725 12.925 115.175 12.925ZM117.875 21.85C117.875 23.5 116.75 24.775 115.175 24.775C113.6 24.775 112.4 23.425 112.4 21.775V21.7C112.4 20.05 113.525 18.775 115.1 18.775C116.675 18.775 117.875 20.125 117.875 21.85ZM18.7998 0.25C8.44981 0.25 0.0498047 8.65 0.0498047 19C0.0498047 29.35 8.44981 37.75 18.7998 37.75C29.1498 37.75 37.5498 29.35 37.5498 19C37.5498 8.65 29.1498 0.25 18.7998 0.25ZM18.7998 32.8C11.1498 32.8 4.99981 26.65 4.99981 19C4.99981 11.35 11.1498 5.2 18.7998 5.2C26.4498 5.2 32.5998 11.35 32.5998 19C32.5998 26.65 26.4498 32.8 18.7998 32.8Z" fill="#F12E45"/>
<path d="M23.4498 18.25C25.6037 18.25 27.3498 16.5039 27.3498 14.35C27.3498 12.1961 25.6037 10.45 23.4498 10.45C21.2959 10.45 19.5498 12.1961 19.5498 14.35C19.5498 16.5039 21.2959 18.25 23.4498 18.25Z" fill="#F12E45"/>
<path d="M23.4498 27.55C25.6037 27.55 27.3498 25.8039 27.3498 23.65C27.3498 21.4961 25.6037 19.75 23.4498 19.75C21.2959 19.75 19.5498 21.4961 19.5498 23.65C19.5498 25.8039 21.2959 27.55 23.4498 27.55Z" fill="#F12E45"/>
<path d="M14.1498 27.55C16.3037 27.55 18.0498 25.8039 18.0498 23.65C18.0498 21.4961 16.3037 19.75 14.1498 19.75C11.9959 19.75 10.2498 21.4961 10.2498 23.65C10.2498 25.8039 11.9959 27.55 14.1498 27.55Z" fill="#F12E45"/>
<path d="M14.1498 18.25C16.3037 18.25 18.0498 16.5039 18.0498 14.35C18.0498 12.1961 16.3037 10.45 14.1498 10.45C11.9959 10.45 10.2498 12.1961 10.2498 14.35C10.2498 16.5039 11.9959 18.25 14.1498 18.25Z" fill="#F12E45"/>
</svg>
