<svg width="151" height="38" viewBox="0 0 151 38" fill="none" xmlns="http://www.w3.org/2000/svg">
<path d="M48.9121 14.9143C48.9121 12.2397 46.3056 9.39904 41.795 9.39904C36.7299 9.39904 31.1657 13.1066 30.3153 20.5033C29.4465 27.9738 34.1049 31.294 38.8003 31.294C43.4957 31.294 45.9544 29.4679 48.4684 27.0331C46.3056 24.3216 43.5142 25.5759 42.9781 25.8526C42.3866 26.1477 41.6287 26.5535 40.0759 26.5535C38.2642 26.5535 36.4157 25.7419 36.4157 22.3663C48.0248 21.2227 48.9121 17.5889 48.9121 14.9143ZM43.163 15.357C43.0891 16.187 42.7563 17.6074 36.8778 18.4005C38.1164 14.0105 40.4825 13.6784 41.5732 13.6784C42.5899 13.6784 43.2369 14.4716 43.163 15.357ZM23.4941 16.0764C23.4941 16.0764 20.9985 23.8973 20.7951 24.5429C20.7212 23.8789 18.8911 9.84174 18.8911 9.84174C14.6394 9.84174 12.3656 12.8668 11.164 16.0579C11.164 16.0579 8.13234 23.8973 7.87354 24.5614C7.85505 23.9527 7.41139 16.1501 7.41139 16.1501C7.15259 12.2397 3.56634 9.86018 0.664062 9.86018L4.17637 31.128C8.63146 31.1096 11.0346 28.1029 12.2917 24.9118C12.2917 24.9118 14.9721 17.9947 15.083 17.6811C15.1015 17.9763 17.0055 31.128 17.0055 31.128C21.4791 31.128 23.8823 28.3058 25.1763 25.2254L31.443 9.86018C27.0249 9.86018 24.6956 12.8668 23.4941 16.0764ZM65.3275 9.36215C62.5731 9.36215 60.4657 10.8562 58.6911 13.0513V13.0328L60.2809 0.25C56.6207 0.25 53.6445 3.42265 53.0714 8.14474L50.2985 30.962C52.4059 30.962 54.6427 30.3533 55.8443 28.8039C56.9165 30.1873 58.5247 31.294 60.9094 31.294C67.0837 31.294 71.3169 24.1371 71.3169 17.4229C71.28 11.2989 68.3037 9.36215 65.3275 9.36215ZM64.7544 20.3373C64.1074 24.0818 62.0185 26.6273 60.0036 26.6273C57.9701 26.6273 57.1013 25.7234 57.1013 25.7234C57.4895 22.4401 57.7298 20.4295 58.4693 18.6956C59.2087 16.9618 60.9649 14.1949 62.795 14.1949C64.5881 14.1949 65.4015 16.5744 64.7544 20.3373ZM86.7341 9.86018H82.4269L82.4454 9.63883C82.7412 6.8351 83.4067 5.35944 85.6065 5.11965C87.1038 4.97209 87.7693 4.19737 87.9357 3.34887C88.0651 2.68483 88.4718 0.37912 88.4718 0.37912C79.8204 0.323783 77.103 4.0498 76.4005 9.73106L76.382 9.86018H76.2896C74.8847 9.86018 73.3319 11.4465 73.0731 13.4571L72.9806 14.1949H75.8644L73.4428 34.1531L72.7034 37.7316C72.7958 37.7316 72.9067 37.75 72.9991 37.75C77.0475 37.6024 79.6355 34.4113 80.2086 29.7815L82.0942 14.1949H83.4436C84.7746 14.1949 86.3274 12.8668 86.6047 10.6533L86.7341 9.86018ZM109.139 9.49127C104.166 9.49127 99.4708 13.1435 98.029 18.8801C96.5871 24.6167 98.7684 31.4047 106.089 31.4047C113.391 31.4047 117.605 24.34 117.605 18.4559C117.605 12.6086 113.631 9.49127 109.139 9.49127ZM111.154 20.1529C110.895 22.7537 109.749 26.7011 106.606 26.7011C103.445 26.7011 103.889 22.0896 104.203 19.8946C104.536 17.552 105.848 14.2134 108.677 14.2134C111.209 14.2134 111.45 17.22 111.154 20.1529ZM142.173 16.0764C142.173 16.0764 139.678 23.8973 139.474 24.5429C139.4 23.8789 137.57 9.84174 137.57 9.84174C133.318 9.84174 131.045 12.8668 129.843 16.0579C129.843 16.0579 126.811 23.8973 126.553 24.5614C126.534 23.9527 126.09 16.1501 126.09 16.1501C125.832 12.2397 122.245 9.86018 119.343 9.86018L122.837 31.128C127.292 31.1096 129.695 28.1029 130.952 24.9118C130.952 24.9118 133.633 17.9947 133.725 17.6811C133.762 17.9763 135.648 31.128 135.648 31.128C140.121 31.128 142.524 28.3058 143.818 25.2254L150.085 9.86018C145.685 9.86018 143.356 12.8668 142.173 16.0764ZM90.801 0.37912L87.1778 29.5417L86.4383 33.1386C86.5308 33.1386 86.6417 33.157 86.7341 33.157C90.6346 33.1017 93.4075 29.6893 93.9251 25.3914L96.014 8.66121C96.6425 3.55177 93.5923 0.37912 90.801 0.37912Z" fill="black"/>
</svg>
