<svg width="32" height="32" viewBox="0 0 32 32" fill="none" xmlns="http://www.w3.org/2000/svg">
<path d="M18.0013 0H6.32232C4.06253 0 1.86272 1.13468 0.762824 3.12037C0.0970312 4.31959 -0.143062 5.71376 0.0825526 7.07056C0.308167 8.42737 0.985862 9.66487 2.00271 10.5769V16.7973C2.00271 17.7091 3.08261 18.1549 3.70256 17.5065L9.00208 12.1573H17.7613C20.661 12.1573 23.3208 10.1716 23.8807 7.29438C24.6207 3.40404 21.7009 0 18.0013 0ZM26.0005 14.1835H14.2416C11.3419 14.1835 8.66211 16.1692 8.12216 19.0464C7.94572 19.9295 7.96499 20.8413 8.17857 21.716C8.39216 22.5906 8.79472 23.4063 9.35722 24.1042C9.91972 24.802 10.6281 25.3647 11.4313 25.7514C12.2344 26.1382 13.1124 26.3395 14.0016 26.3408H23.0008L28.3003 31.7103C28.4401 31.8491 28.617 31.9434 28.8091 31.9813C29.0012 32.0192 29.2001 31.9992 29.3811 31.9237C29.5621 31.8482 29.7172 31.7205 29.8273 31.5565C29.9373 31.3925 29.9974 31.1994 30.0002 31.0011V24.7806C31.2601 23.646 32 22.0047 32 20.2824C32 18.6684 31.3686 17.1202 30.244 15.977C29.1195 14.8338 27.5935 14.1889 26.0005 14.1835Z" fill="white"/>
</svg>
