<svg width="25" height="24" viewBox="0 0 25 24" fill="none" xmlns="http://www.w3.org/2000/svg">
<path d="M3.5 5V4.5C3.36739 4.5 3.24021 4.55268 3.14645 4.64645C3.05268 4.74021 3 4.86739 3 5H3.5ZM21.5 5H22C22 4.86739 21.9473 4.74021 21.8536 4.64645C21.7598 4.55268 21.6326 4.5 21.5 4.5V5ZM3.5 5.5H21.5V4.5H3.5V5.5ZM21 5V17H22V5H21ZM19.5 18.5H5.5V19.5H19.5V18.5ZM4 17V5H3V17H4ZM5.5 18.5C5.10218 18.5 4.72064 18.342 4.43934 18.0607C4.15804 17.7794 4 17.3978 4 17H3C3 17.663 3.26339 18.2989 3.73223 18.7678C4.20107 19.2366 4.83696 19.5 5.5 19.5V18.5ZM21 17C21 17.3978 20.842 17.7794 20.5607 18.0607C20.2794 18.342 19.8978 18.5 19.5 18.5V19.5C20.163 19.5 20.7989 19.2366 21.2678 18.7678C21.7366 18.2989 22 17.663 22 17H21Z" fill="white"/>
<path d="M3.5 5L12.5 14L21.5 5" stroke="white" stroke-linecap="round" stroke-linejoin="round"/>
</svg>
