<svg width="13" height="11" viewBox="0 0 13 11" fill="none" xmlns="http://www.w3.org/2000/svg">
<path d="M1.68428 1.19206L1.68426 1.19204C1.6694 1.16977 1.64996 1.15365 1.62917 1.14394C1.60849 1.13428 1.58641 1.13088 1.56497 1.13344L1.50586 0.636992L1.56526 1.1334C1.54446 1.13589 1.52332 1.14419 1.5036 1.1599C1.48438 1.17521 1.4682 1.19679 1.4583 1.22324L1.68428 1.19206ZM1.68428 1.19206C2.69747 2.71036 3.94855 3.37377 5.34108 3.52173L5.83574 3.57429M1.68428 1.19206L5.83574 3.57429M5.83574 3.57429L5.89083 3.0799M5.83574 3.57429L5.89083 3.0799M5.89083 3.0799C5.94615 2.58339 6.07474 2.11574 6.3021 1.71644L6.30218 1.71629M5.89083 3.0799L6.30218 1.71629M6.30218 1.71629C6.628 1.14362 7.15087 0.723029 7.92501 0.563759L7.92509 0.563742M6.30218 1.71629L7.92509 0.563742M7.92509 0.563742C9.00978 0.340392 9.80739 0.741087 10.2617 1.20862L10.4496 1.40195M7.92509 0.563742L10.4496 1.40195M10.4496 1.40195L10.7143 1.35125M10.4496 1.40195L10.7143 1.35125M10.7143 1.35125L11.8461 1.13449L11.8464 1.13445M10.7143 1.35125L11.8464 1.13445M11.8464 1.13445C11.8687 1.13016 11.8919 1.13241 11.9137 1.14142C11.9356 1.15048 11.9564 1.16653 11.9723 1.18942C11.9883 1.21241 11.9983 1.24083 11.9998 1.27136C12.0013 1.3019 11.9942 1.33159 11.9802 1.35669L11.9801 1.35692M11.8464 1.13445L11.9801 1.35692M11.9801 1.35692L10.8937 3.31228L10.8263 3.43377M11.9801 1.35692L10.8263 3.43377M10.8263 3.43377L10.8311 3.57266M10.8263 3.43377L10.8311 3.57266M10.8311 3.57266C10.9265 6.2871 10.1936 8.08768 8.71283 9.31881L8.7128 9.31884M10.8311 3.57266L8.7128 9.31884M8.7128 9.31884C7.95134 9.95202 6.82167 10.3388 5.52215 10.4594L8.7128 9.31884ZM1.25174 9.99096L1.2519 9.99101C2.73495 10.4347 4.2199 10.5799 5.52203 10.4594L1.25174 9.99096ZM1.25174 9.99096C1.2265 9.98342 1.20202 9.96698 1.18346 9.94153L0.779881 10.2359M1.25174 9.99096L0.779881 10.2359M0.779881 10.2359L1.18346 9.94153C1.16477 9.9159 1.15373 9.88318 1.15386 9.8483C1.15398 9.81342 1.16524 9.78082 1.18409 9.75537C1.20279 9.73011 1.22734 9.71388 1.2526 9.70654L1.25299 9.70642M0.779881 10.2359L1.25299 9.70642M1.25299 9.70642C2.0267 9.48079 2.67994 9.26978 3.27932 8.8859L3.99188 8.42955M1.25299 9.70642L3.99188 8.42955M3.99188 8.42955L3.2484 8.02553M3.99188 8.42955L3.2484 8.02553M3.2484 8.02553C2.56444 7.65385 2.0695 7.17339 1.72055 6.63122L3.2484 8.02553ZM1.20382 2.12428L1.20377 2.12452C1.08232 2.66962 0.969709 3.41758 1.00739 4.21677C1.04508 5.01616 1.23374 5.87385 1.72041 6.63102L1.20382 2.12428ZM1.20382 2.12428C1.27432 1.80713 1.3531 1.50524 1.45826 1.22335L1.20382 2.12428Z" fill="white" stroke="white"/>
</svg>
