<svg width="13" height="12" viewBox="0 0 13 12" fill="none" xmlns="http://www.w3.org/2000/svg">
<path d="M9.16667 0C10.0507 0 10.8986 0.351189 11.5237 0.976311C12.1488 1.60143 12.5 2.44928 12.5 3.33333V8.66667C12.5 9.55072 12.1488 10.3986 11.5237 11.0237C10.8986 11.6488 10.0507 12 9.16667 12H3.83333C2.94928 12 2.10143 11.6488 1.47631 11.0237C0.851189 10.3986 0.5 9.55072 0.5 8.66667V3.33333C0.5 2.44928 0.851189 1.60143 1.47631 0.976311C2.10143 0.351189 2.94928 0 3.83333 0H9.16667ZM6.5 3.33333C5.79276 3.33333 5.11448 3.61428 4.61438 4.11438C4.11428 4.61448 3.83333 5.29276 3.83333 6C3.83333 6.70724 4.11428 7.38552 4.61438 7.88562C5.11448 8.38572 5.79276 8.66667 6.5 8.66667C7.20724 8.66667 7.88552 8.38572 8.38562 7.88562C8.88572 7.38552 9.16667 6.70724 9.16667 6C9.16667 5.29276 8.88572 4.61448 8.38562 4.11438C7.88552 3.61428 7.20724 3.33333 6.5 3.33333ZM6.5 4.66667C6.85362 4.66667 7.19276 4.80714 7.44281 5.05719C7.69286 5.30724 7.83333 5.64638 7.83333 6C7.83333 6.35362 7.69286 6.69276 7.44281 6.94281C7.19276 7.19286 6.85362 7.33333 6.5 7.33333C6.14638 7.33333 5.80724 7.19286 5.55719 6.94281C5.30714 6.69276 5.16667 6.35362 5.16667 6C5.16667 5.64638 5.30714 5.30724 5.55719 5.05719C5.80724 4.80714 6.14638 4.66667 6.5 4.66667ZM9.5 2.33333C9.32319 2.33333 9.15362 2.40357 9.0286 2.5286C8.90357 2.65362 8.83333 2.82319 8.83333 3C8.83333 3.17681 8.90357 3.34638 9.0286 3.4714C9.15362 3.59643 9.32319 3.66667 9.5 3.66667C9.67681 3.66667 9.84638 3.59643 9.97141 3.4714C10.0964 3.34638 10.1667 3.17681 10.1667 3C10.1667 2.82319 10.0964 2.65362 9.97141 2.5286C9.84638 2.40357 9.67681 2.33333 9.5 2.33333Z" fill="white"/>
</svg>
