<svg width="11" height="11" viewBox="0 0 11 11" fill="none" xmlns="http://www.w3.org/2000/svg">
<path fill-rule="evenodd" clip-rule="evenodd" d="M6.00692 3.114V4.24533C6.24383 3.88445 6.57039 3.59127 6.95463 3.39447C7.33887 3.19768 7.76762 3.10402 8.19892 3.12267C10.5023 3.12267 11.0003 4.56267 11.0003 6.436V10.25H8.86692V6.86867C8.86692 6.062 8.70426 5.02467 7.44825 5.02467C6.23025 5.02467 6.02225 5.90267 6.02225 6.80867V10.25H3.89558V3.114H6.00692ZM2.46691 1.32067C2.46665 1.532 2.404 1.73856 2.28683 1.91444C2.16966 2.09031 2.00317 2.22769 1.80824 2.30933C1.61339 2.39032 1.39886 2.41151 1.19193 2.37019C0.985005 2.32888 0.79505 2.22693 0.64624 2.07733C0.49715 1.92764 0.395649 1.7372 0.354501 1.52998C0.313352 1.32275 0.334394 1.10798 0.41498 0.912684C0.495565 0.717384 0.632096 0.550271 0.807405 0.432359C0.982713 0.314448 1.18897 0.251002 1.40024 0.25C1.54066 0.249999 1.67969 0.277721 1.80936 0.331576C1.93904 0.385431 2.05681 0.464359 2.15591 0.563832C2.25501 0.663306 2.3335 0.781366 2.38687 0.911242C2.44023 1.04112 2.46744 1.18025 2.46691 1.32067Z" fill="white"/>
<path d="M2.46732 3.12256H0.333984V10.2499H2.46732V3.12256Z" fill="white"/>
</svg>
