<svg width="25" height="24" viewBox="0 0 25 24" fill="none" xmlns="http://www.w3.org/2000/svg">
<path d="M21.2741 15.0279L16.8453 13.0432C16.6447 12.9573 16.4257 12.9227 16.2083 12.9427C15.9909 12.9626 15.782 13.0365 15.6003 13.1576C15.5819 13.1695 15.5644 13.1827 15.5478 13.197L13.2331 15.1657C13.2091 15.1788 13.1824 15.1862 13.155 15.1871C13.1277 15.1881 13.1005 15.1827 13.0756 15.1714C11.5878 14.4532 10.0466 12.9214 9.32564 11.4542C9.31363 11.4297 9.30739 11.4027 9.30739 11.3754C9.30739 11.3481 9.31363 11.3212 9.32564 11.2967L11.3009 8.95293C11.3151 8.93561 11.3283 8.91745 11.3403 8.89856C11.4598 8.71622 11.5319 8.50701 11.5502 8.28981C11.5685 8.07262 11.5325 7.85427 11.4453 7.6545L9.4747 3.23325C9.36279 2.97226 9.16925 2.7546 8.92313 2.61295C8.67701 2.47129 8.39159 2.41328 8.1097 2.44762C6.8846 2.60868 5.76006 3.21031 4.94622 4.14009C4.13238 5.06987 3.68494 6.26417 3.68751 7.49981C3.68751 14.8404 9.65939 20.8123 17 20.8123C18.2356 20.8147 19.4298 20.3672 20.3595 19.5534C21.2893 18.7396 21.8909 17.6151 22.0522 16.3901C22.0865 16.1096 22.0292 15.8254 21.889 15.58C21.7488 15.3345 21.5332 15.1409 21.2741 15.0279ZM17 19.6873C10.28 19.6873 4.81251 14.2198 4.81251 7.49981C4.80938 6.53787 5.15658 5.60769 5.78924 4.88307C6.4219 4.15845 7.29675 3.68895 8.25032 3.56231H8.27189C8.30967 3.56301 8.34635 3.57512 8.37713 3.59703C8.40791 3.61895 8.43136 3.64965 8.44439 3.68512L10.4225 8.10168C10.4338 8.12624 10.4396 8.15294 10.4396 8.17997C10.4396 8.20699 10.4338 8.23369 10.4225 8.25825L8.44345 10.6076C8.42876 10.6245 8.41528 10.6423 8.40314 10.6611C8.2793 10.8501 8.20637 11.0679 8.19143 11.2934C8.17648 11.519 8.22002 11.7445 8.31782 11.9482C9.14939 13.6507 10.865 15.3532 12.5863 16.1848C12.7912 16.2821 13.0178 16.3246 13.2441 16.3081C13.4703 16.2917 13.6885 16.2169 13.8772 16.0911C13.895 16.0789 13.9128 16.0657 13.9297 16.0517L16.2434 14.0829C16.2663 14.0707 16.2915 14.0635 16.3174 14.0618C16.3433 14.0602 16.3692 14.0642 16.3934 14.0736L20.8231 16.0582C20.8593 16.0737 20.8897 16.1001 20.9101 16.1337C20.9305 16.1673 20.9397 16.2065 20.9366 16.2457C20.8106 17.1998 20.3415 18.0753 19.6171 18.7086C18.8926 19.342 17.9623 19.6899 17 19.6873Z" fill="white"/>
</svg>
