<svg width="392" height="144" viewBox="0 0 392 144" fill="none" xmlns="http://www.w3.org/2000/svg">
<path d="M44.8564 26.1816C45.314 28.8623 46.0084 32.3871 47.0098 36.2197C49.0953 44.202 52.5465 53.6665 58.0625 59.5527L58.6035 60.1113C64.4359 65.9435 74.2544 69.5522 82.4941 71.7051C86.3261 72.7063 89.8507 73.3989 92.5312 73.8564C89.8507 74.314 86.3263 75.0085 82.4941 76.0098C74.2543 78.1627 64.4358 81.7712 58.6035 87.6035C52.7712 93.4358 49.1627 103.254 47.0098 111.494C46.0085 115.326 45.314 118.851 44.8564 121.531C44.3989 118.851 43.7063 115.326 42.7051 111.494C40.6194 103.512 37.1676 94.0473 31.6514 88.1611L31.1113 87.6035C25.279 81.7712 15.4596 78.1627 7.21973 76.0098C3.38709 75.0084 -0.137685 74.314 -2.81836 73.8564C-0.137746 73.3989 3.38725 72.7064 7.21973 71.7051C15.2021 69.6195 24.6665 66.1675 30.5527 60.6514L31.1113 60.1113C36.9437 54.279 40.5522 44.4596 42.7051 36.2197C43.7064 32.3872 44.3989 28.8623 44.8564 26.1816Z" stroke="#88A8A2" stroke-width="1.5"/>
<path d="M143.171 26.3245C143.628 29.0051 144.323 32.5299 145.324 36.3625C147.41 44.3448 150.861 53.8094 156.377 59.6956L156.918 60.2542C162.75 66.0863 172.569 69.695 180.809 71.8479C184.641 72.8491 188.165 73.5417 190.846 73.9993C188.165 74.4568 184.641 75.1513 180.809 76.1526C172.569 78.3055 162.75 81.914 156.918 87.7463C151.086 93.5787 147.477 103.397 145.324 111.637C144.323 115.469 143.628 118.993 143.171 121.674C142.713 118.994 142.021 115.469 141.02 111.637C138.934 103.655 135.482 94.1901 129.966 88.304L129.426 87.7463C123.593 81.914 113.774 78.3055 105.534 76.1526C101.702 75.1512 98.1768 74.4568 95.4961 73.9993C98.1767 73.5417 101.702 72.8492 105.534 71.8479C113.517 69.7623 122.981 66.3103 128.867 60.7942L129.426 60.2542C135.258 54.4218 138.867 44.6024 141.02 36.3625C142.021 32.5301 142.713 29.0051 143.171 26.3245Z" stroke="#88A8A2" stroke-width="1.5"/>
<path d="M90.4609 6.3252C91.0949 10.1628 92.1066 15.4471 93.6182 21.2324C96.6307 32.7623 101.666 46.4397 109.771 54.5439C117.875 62.6482 131.552 67.6838 143.082 70.6963C148.867 72.2079 154.152 73.2195 157.989 73.8535C158.302 73.9052 158.605 73.9533 158.898 74C158.605 74.0467 158.302 74.0948 157.989 74.1465C154.152 74.7805 148.867 75.7921 143.082 77.3037C131.552 80.3162 117.875 85.3518 109.771 93.4561C101.666 101.56 96.6307 115.238 93.6182 126.768C92.1066 132.553 91.0949 137.837 90.4609 141.675C90.4093 141.988 90.3612 142.291 90.3145 142.584C90.2677 142.291 90.2196 141.988 90.168 141.675C89.534 137.837 88.5223 132.553 87.0107 126.768C83.9982 115.238 78.9627 101.56 70.8584 93.4561C62.7541 85.3518 49.0768 80.3162 37.5469 77.3037C31.7615 75.7921 26.4772 74.7805 22.6396 74.1465C22.3266 74.0948 22.0229 74.0468 21.7295 74C22.0229 73.9532 22.3266 73.9052 22.6396 73.8535C26.4772 73.2195 31.7615 72.2079 37.5469 70.6963C49.0768 67.6838 62.7541 62.6482 70.8584 54.5439C78.9627 46.4397 83.9982 32.7623 87.0107 21.2324C88.5223 15.4471 89.534 10.1628 90.168 6.3252C90.2197 6.01211 90.2677 5.70842 90.3145 5.41504C90.3612 5.70842 90.4092 6.01211 90.4609 6.3252Z" stroke="#88A8A2" stroke-width="1.5"/>
<path d="M248.886 26.3245C249.343 29.0051 250.038 32.5299 251.039 36.3625C253.125 44.3448 256.576 53.8094 262.092 59.6956L262.633 60.2542C268.465 66.0863 278.284 69.695 286.523 71.8479C290.355 72.8491 293.88 73.5417 296.561 73.9993C293.88 74.4568 290.356 75.1513 286.523 76.1526C278.284 78.3055 268.465 81.914 262.633 87.7463C256.8 93.5787 253.192 103.397 251.039 111.637C250.038 115.469 249.343 118.993 248.886 121.674C248.428 118.994 247.736 115.469 246.734 111.637C244.649 103.655 241.197 94.1901 235.681 88.304L235.141 87.7463C229.308 81.914 219.489 78.3055 211.249 76.1526C207.416 75.1512 203.892 74.4568 201.211 73.9993C203.892 73.5417 207.417 72.8492 211.249 71.8479C219.231 69.7623 228.696 66.3103 234.582 60.7942L235.141 60.2542C240.973 54.4218 244.581 44.6024 246.734 36.3625C247.736 32.5301 248.428 29.0051 248.886 26.3245Z" stroke="#88A8A2" stroke-width="1.5"/>
<path d="M197 25.3613C197.108 25.845 197.227 26.3538 197.363 26.877C198.155 29.906 199.484 33.5885 201.658 35.9082L201.871 36.1289C204.173 38.4305 207.996 39.8197 211.123 40.6367C211.646 40.7733 212.154 40.8921 212.638 41C212.154 41.1079 211.646 41.2267 211.123 41.3633C207.996 42.1803 204.173 43.5695 201.871 45.8711C199.57 48.1727 198.18 51.9962 197.363 55.123C197.227 55.6459 197.108 56.1543 197 56.6377C196.892 56.1543 196.773 55.6459 196.637 55.123C195.845 52.094 194.516 48.4115 192.342 46.0918L192.129 45.8711C189.827 43.5695 186.004 42.1803 182.877 41.3633C182.354 41.2266 181.845 41.108 181.361 41C181.845 40.892 182.354 40.7734 182.877 40.6367C185.906 39.8453 189.589 38.5164 191.908 36.3418L192.129 36.1289C194.43 33.8273 195.82 30.0038 196.637 26.877C196.773 26.3538 196.892 25.845 197 25.3613Z" stroke="#88A8A2" stroke-width="1.5"/>
<path d="M197 91.3613C197.108 91.845 197.227 92.3538 197.363 92.877C198.155 95.906 199.484 99.5885 201.658 101.908L201.871 102.129C204.173 104.43 207.996 105.82 211.123 106.637C211.646 106.773 212.154 106.892 212.638 107C212.154 107.108 211.646 107.227 211.123 107.363C208.094 108.155 204.411 109.484 202.092 111.658L201.871 111.871C199.57 114.173 198.18 117.996 197.363 121.123C197.227 121.646 197.108 122.154 197 122.638C196.892 122.154 196.773 121.646 196.637 121.123C195.845 118.094 194.516 114.411 192.342 112.092L192.129 111.871C189.827 109.57 186.004 108.18 182.877 107.363C182.354 107.227 181.845 107.108 181.361 107C181.845 106.892 182.354 106.773 182.877 106.637C185.906 105.845 189.589 104.516 191.908 102.342L192.129 102.129C194.43 99.8273 195.82 96.0038 196.637 92.877C196.773 92.3538 196.892 91.845 197 91.3613Z" stroke="#88A8A2" stroke-width="1.5"/>
<path d="M347.2 26.3245C347.658 29.0051 348.352 32.5299 349.354 36.3625C351.439 44.3448 354.89 53.8094 360.406 59.6956L360.947 60.2542C366.78 66.0863 376.598 69.695 384.838 71.8479C388.67 72.8491 392.194 73.5417 394.875 73.9993C392.194 74.4568 388.67 75.1513 384.838 76.1526C376.598 78.3055 366.78 81.914 360.947 87.7463C355.115 93.5787 351.506 103.397 349.354 111.637C348.352 115.469 347.658 118.993 347.2 121.674C346.743 118.994 346.05 115.469 345.049 111.637C342.963 103.655 339.511 94.1901 333.995 88.304L333.455 87.7463C327.623 81.914 317.803 78.3055 309.563 76.1526C305.731 75.1512 302.206 74.4568 299.525 73.9993C302.206 73.5417 305.731 72.8492 309.563 71.8479C317.546 69.7623 327.01 66.3103 332.896 60.7942L333.455 60.2542C339.287 54.4218 342.896 44.6024 345.049 36.3625C346.05 32.5301 346.743 29.0051 347.2 26.3245Z" stroke="#88A8A2" stroke-width="1.5"/>
<path d="M294.49 6.3252C295.124 10.1628 296.136 15.4471 297.647 21.2324C300.66 32.7623 305.696 46.4397 313.8 54.5439C321.904 62.6482 335.581 67.6838 347.111 70.6963C352.897 72.2079 358.181 73.2195 362.019 73.8535C362.331 73.9052 362.635 73.9533 362.928 74C362.635 74.0467 362.331 74.0948 362.019 74.1465C358.181 74.7805 352.897 75.7921 347.111 77.3037C335.581 80.3162 321.904 85.3518 313.8 93.4561C305.696 101.56 300.66 115.238 297.647 126.768C296.136 132.553 295.124 137.837 294.49 141.675C294.439 141.988 294.39 142.291 294.344 142.584C294.297 142.291 294.249 141.988 294.197 141.675C293.563 137.837 292.552 132.553 291.04 126.768C288.028 115.238 282.992 101.56 274.888 93.4561C266.783 85.3518 253.106 80.3162 241.576 77.3037C235.791 75.7921 230.507 74.7805 226.669 74.1465C226.356 74.0948 226.052 74.0468 225.759 74C226.052 73.9532 226.356 73.9052 226.669 73.8535C230.507 73.2195 235.791 72.2079 241.576 70.6963C253.106 67.6838 266.783 62.6482 274.888 54.5439C282.992 46.4397 288.028 32.7623 291.04 21.2324C292.552 15.4471 293.563 10.1628 294.197 6.3252C294.249 6.01211 294.297 5.70842 294.344 5.41504C294.391 5.70842 294.439 6.01211 294.49 6.3252Z" stroke="#88A8A2" stroke-width="1.5"/>
</svg>
