<svg width="392" height="144" viewBox="0 0 392 144" fill="none" xmlns="http://www.w3.org/2000/svg">
<path d="M45.2158 80.7537C45.6764 83.4561 46.3768 87.0167 47.3887 90.8894C49.4885 98.926 52.9629 108.453 58.5156 114.379L59.0596 114.94C64.9305 120.811 74.8147 124.444 83.1104 126.611C86.9825 127.623 90.5428 128.322 93.2451 128.783C90.5428 129.244 86.9825 129.944 83.1104 130.956C75.0738 133.056 65.5462 136.53 59.6211 142.083L59.0596 142.627C53.1887 148.498 49.5562 158.382 47.3887 166.677C46.377 170.55 45.6764 174.11 45.2158 176.812C44.7553 174.11 44.0556 170.55 43.0439 166.677C40.9441 158.641 37.4698 149.113 31.917 143.188L31.373 142.627C25.5021 136.756 15.618 133.123 7.32227 130.956C3.44956 129.944 -0.111002 129.244 -2.81348 128.783C-0.111024 128.322 3.44965 127.623 7.32227 126.611C15.618 124.444 25.5021 120.811 31.373 114.94C37.244 109.069 40.8764 99.1851 43.0439 90.8894C44.0558 87.0168 44.7553 83.4561 45.2158 80.7537Z" stroke="#92AD7F" stroke-width="1.5"/>
<path d="M144.198 80.7537C144.659 83.4561 145.359 87.0167 146.371 90.8894C148.471 98.926 151.945 108.453 157.498 114.379L158.042 114.94C163.913 120.811 173.797 124.444 182.093 126.611C185.965 127.623 189.525 128.322 192.228 128.783C189.525 129.244 185.965 129.944 182.093 130.956C174.056 133.056 164.529 136.53 158.604 142.083L158.042 142.627C152.171 148.498 148.539 158.382 146.371 166.677C145.359 170.55 144.659 174.11 144.198 176.812C143.738 174.11 143.038 170.55 142.026 166.677C139.927 158.641 136.452 149.113 130.899 143.188L130.355 142.627C124.485 136.756 114.6 133.123 106.305 130.956C102.432 129.944 98.8714 129.244 96.1689 128.783C98.8714 128.322 102.432 127.623 106.305 126.611C114.6 124.444 124.485 120.811 130.355 114.94C136.226 109.069 139.859 99.1851 142.026 90.8894C143.038 87.0168 143.738 83.4561 144.198 80.7537Z" stroke="#92AD7F" stroke-width="1.5"/>
<path d="M250.632 80.7537C251.092 83.4561 251.793 87.0167 252.805 90.8894C254.904 98.926 258.379 108.453 263.932 114.379L264.476 114.94C270.346 120.811 280.231 124.444 288.526 126.611C292.398 127.623 295.959 128.322 298.661 128.783C295.959 129.244 292.399 129.944 288.526 130.956C280.49 133.056 270.962 136.53 265.037 142.083L264.476 142.627C258.605 148.498 254.972 158.382 252.805 166.677C251.793 170.55 251.092 174.11 250.632 176.812C250.171 174.11 249.472 170.55 248.46 166.677C246.36 158.641 242.886 149.113 237.333 143.188L236.789 142.627C230.918 136.756 221.034 133.123 212.738 130.956C208.866 129.944 205.305 129.244 202.603 128.783C205.305 128.322 208.866 127.623 212.738 126.611C221.034 124.444 230.918 120.811 236.789 114.94C242.66 109.069 246.292 99.1851 248.46 90.8894C249.472 87.0168 250.171 83.4561 250.632 80.7537Z" stroke="#92AD7F" stroke-width="1.5"/>
<path d="M349.614 80.7537C350.075 83.4561 350.775 87.0167 351.787 90.8894C353.887 98.926 357.361 108.453 362.914 114.379L363.458 114.94C369.329 120.811 379.213 124.444 387.509 126.611C391.381 127.623 394.941 128.322 397.644 128.783C394.941 129.244 391.381 129.944 387.509 130.956C379.472 133.056 369.945 136.53 364.02 142.083L363.458 142.627C357.587 148.498 353.955 158.382 351.787 166.677C350.775 170.55 350.075 174.11 349.614 176.812C349.154 174.11 348.454 170.55 347.442 166.677C345.343 158.641 341.868 149.113 336.315 143.188L335.771 142.627C329.901 136.756 320.016 133.123 311.721 130.956C307.848 129.944 304.287 129.244 301.585 128.783C304.287 128.322 307.848 127.623 311.721 126.611C320.016 124.444 329.901 120.811 335.771 114.94C341.642 109.069 345.275 99.1851 347.442 90.8894C348.454 87.0168 349.154 83.4561 349.614 80.7537Z" stroke="#92AD7F" stroke-width="1.5"/>
<path d="M301.72 5.18652C302.18 7.889 302.881 11.4496 303.893 15.3223C305.992 23.3588 309.467 32.8864 315.02 38.8115L315.563 39.373C321.434 45.2439 331.319 48.8764 339.614 51.0439C343.486 52.0556 347.047 52.7553 349.749 53.2158C347.047 53.6764 343.486 54.377 339.614 55.3887C331.578 57.4885 322.05 60.9629 316.125 66.5156L315.563 67.0596C309.693 72.9305 306.06 82.8146 303.893 91.1104C302.881 94.9825 302.18 98.5428 301.72 101.245C301.259 98.5428 300.56 94.9825 299.548 91.1104C297.448 83.0738 293.974 73.5462 288.421 67.6211L287.877 67.0596C282.006 61.1887 272.122 57.5562 263.826 55.3887C259.953 54.3768 256.393 53.6764 253.69 53.2158C256.393 52.7553 259.954 52.0558 263.826 51.0439C272.122 48.8764 282.006 45.244 287.877 39.373C293.748 33.5021 297.38 23.618 299.548 15.3223C300.56 11.4497 301.259 7.88898 301.72 5.18652Z" stroke="#92AD7F" stroke-width="1.5"/>
<path d="M95.2393 5.18652C95.6998 7.889 96.4003 11.4496 97.4121 15.3223C99.5119 23.3588 102.986 32.8864 108.539 38.8115L109.083 39.373C114.954 45.2439 124.838 48.8764 133.134 51.0439C137.006 52.0556 140.566 52.7553 143.269 53.2158C140.566 53.6764 137.006 54.377 133.134 55.3887C125.097 57.4885 115.57 60.9629 109.645 66.5156L109.083 67.0596C103.212 72.9305 99.5796 82.8146 97.4121 91.1104C96.4004 94.9825 95.6998 98.5428 95.2393 101.245C94.7787 98.5428 94.0791 94.9825 93.0674 91.1104C90.9676 83.0738 87.4932 73.5462 81.9404 67.6211L81.3965 67.0596C75.5255 61.1887 65.6414 57.5562 57.3457 55.3887C53.473 54.3768 49.9124 53.6764 47.21 53.2158C49.9124 52.7553 53.4731 52.0558 57.3457 51.0439C65.6414 48.8764 75.5256 45.244 81.3965 39.373C87.2674 33.5021 90.8999 23.618 93.0674 15.3223C94.0792 11.4497 94.7787 7.88898 95.2393 5.18652Z" stroke="#92AD7F" stroke-width="1.5"/>
<circle cx="95.2397" cy="127.719" r="20.5366" stroke="#92AD7F" stroke-width="1.5"/>
<circle cx="300.656" cy="127.719" r="20.5366" stroke="#92AD7F" stroke-width="1.5"/>
<circle cx="197.415" cy="128.784" r="41.8231" stroke="#92AD7F" stroke-width="1.5"/>
<path d="M198.479 36.3459C198.606 36.9238 198.747 37.5379 198.913 38.1721C199.755 41.3951 201.167 45.3046 203.473 47.7639L203.699 47.9973C206.139 50.437 210.196 51.9142 213.523 52.7834C214.158 52.9491 214.772 53.0898 215.35 53.2161C214.772 53.3423 214.158 53.484 213.523 53.6497C210.196 54.519 206.139 55.996 203.699 58.4358C201.259 60.8756 199.782 64.933 198.913 68.26C198.747 68.8942 198.606 69.5084 198.479 70.0862C198.353 69.5085 198.213 68.8941 198.047 68.26C197.205 65.0372 195.793 61.1285 193.487 58.6692L193.261 58.4358C190.821 55.996 186.763 54.5189 183.436 53.6497C182.801 53.484 182.187 53.3423 181.609 53.2161C182.187 53.0898 182.801 52.9491 183.436 52.7834C186.658 51.9414 190.568 50.5293 193.027 48.2239L193.261 47.9973C195.701 45.5575 197.178 41.4992 198.047 38.1721C198.213 37.5379 198.353 36.9237 198.479 36.3459Z" stroke="#92AD7F" stroke-width="1.5"/>
</svg>
