<svg width="32" height="32" viewBox="0 0 32 32" fill="none" xmlns="http://www.w3.org/2000/svg">
<path d="M23.4367 5.90935L20.77 4.50935C18.4287 3.28135 17.258 2.66669 15.9993 2.66669C14.7407 2.66669 13.57 3.28002 11.2287 4.50935L10.8007 4.73469L22.698 11.5334L28.0527 8.85335C27.1913 7.87735 25.802 7.14802 23.4367 5.90669M28.9967 10.6187L23.666 13.2854V17.3334C23.666 17.5986 23.5607 17.8529 23.3731 18.0405C23.1856 18.228 22.9312 18.3334 22.666 18.3334C22.4008 18.3334 22.1464 18.228 21.9589 18.0405C21.7714 17.8529 21.666 17.5986 21.666 17.3334V14.2854L16.9993 16.6187V29.2054C17.9567 28.9667 19.046 28.396 20.77 27.4907L23.4367 26.0907C26.3047 24.5854 27.7393 23.8334 28.5367 22.48C29.3327 21.128 29.3327 19.444 29.3327 16.08V15.924C29.3327 13.4 29.3327 11.8214 28.9967 10.6187ZM14.9993 29.2054V16.6187L3.00202 10.6187C2.66602 11.8214 2.66602 13.4 2.66602 15.9214V16.0774C2.66602 19.444 2.66602 21.128 3.46202 22.48C4.25935 23.8334 5.69402 24.5867 8.56202 26.092L11.2287 27.4907C12.9527 28.396 14.042 28.9667 14.9993 29.2054ZM3.94602 8.85469L15.9993 14.8814L20.5473 12.608L8.69935 5.83735L8.56202 5.90935C6.19802 7.14935 4.80735 7.87869 3.94602 8.85602" fill="white"/>
</svg>
