<svg width="7" height="11" viewBox="0 0 7 11" fill="none" xmlns="http://www.w3.org/2000/svg">
<path d="M4.83005 0C4.10495 0 3.40955 0.2937 2.89683 0.81649C2.3841 1.33928 2.09606 2.04833 2.09606 2.78767V4.33973H0.633005C0.559704 4.33973 0.5 4.4 0.5 4.47534V6.52466C0.5 6.5994 0.559113 6.66027 0.633005 6.66027H2.09606V10.8644C2.09606 10.9391 2.15517 11 2.22906 11H4.23892C4.31222 11 4.37192 10.9397 4.37192 10.8644V6.66027H5.84798C5.90887 6.66027 5.96207 6.61808 5.97685 6.55781L6.47931 4.50849C6.48425 4.4885 6.48466 4.46761 6.4805 4.44743C6.47633 4.42725 6.46771 4.4083 6.45529 4.39203C6.44286 4.37576 6.42696 4.36259 6.40879 4.35352C6.39062 4.34446 6.37067 4.33974 6.35044 4.33973H4.37192V2.78767C4.37192 2.72633 4.38377 2.66558 4.40679 2.60891C4.42982 2.55224 4.46356 2.50074 4.5061 2.45737C4.54864 2.41399 4.59915 2.37958 4.65473 2.35611C4.71031 2.33263 4.76989 2.32055 4.83005 2.32055H6.36699C6.4403 2.32055 6.5 2.26027 6.5 2.18493V0.135616C6.5 0.0608767 6.44089 0 6.36699 0H4.83005Z" fill="white"/>
</svg>
